<?xml version="1.0" encoding="utf-8"?>
<!-- Generator: Adobe Illustrator 25.0.0, SVG Export Plug-In . SVG Version: 6.00 Build 0)  -->
<svg version="1.1" id="Layer_1" xmlns="http://www.w3.org/2000/svg" xmlns:xlink="http://www.w3.org/1999/xlink" x="0px" y="0px"
	 viewBox="0 0 500 500" style="enable-background:new 0 0 500 500;" xml:space="preserve">
<style type="text/css">
	.st0{fill:#010101;}
</style>
<path class="st0" d="M365.76,337.73c-5.77-10.61-14.42-20.19-25.96-28.72c-11.54-8.53-24.52-15.4-38.93-20.59
	c-14.42-5.19-29.48-9.05-45.16-11.59c-46.61-6.92-90.1-22.03-130.47-45.34c-3.46-1.84-7.15-5.76-11.08-11.77
	c-3.93-6-5.88-11.77-5.88-17.3c0-20.3,3.4-40.66,10.21-61.08c6.8-20.42,15.51-36.39,26.13-47.93
	c17.07-19.15,47.81-35.87,92.23-50.18c44.41-14.3,94.42-21.46,150.03-21.46c33.22,0,58.89,2.54,77,7.61
	c18.11,5.08,27.17,12.92,27.17,23.53c0,17.3-2.37,30.69-7.09,40.15c-4.73,9.46-9.81,15.75-15.23,18.86
	c-5.42,3.11-14.94,7.33-28.55,12.63c-14.54,5.08-27.17,10.38-37.9,15.92c-10.73,5.54-19.9,10.85-27.51,15.92
	c-7.61,5.08-12.35,7.61-14.19,7.61c-2.31,0-3.46-0.92-3.46-2.77c0-3.92,4.09-9.86,12.29-17.82c8.19-7.96,18.28-14.94,30.28-20.94
	c12.69-6.69,19.03-10.96,19.03-12.81c0-3-7.04-4.5-21.11-4.5c-42.69,0-82.14,3.81-118.36,11.42c-36.23,7.61-64.78,17.65-85.66,30.11
	c-20.88,12.46-31.32,25.15-31.32,38.07c0,8.08,4.33,13.79,12.98,17.13c8.65,3.35,27.74,8.94,57.28,16.79
	c29.53,7.85,55.95,16.84,79.25,26.99c33.45,14.31,58.25,29.19,74.41,44.64c16.15,15.46,24.23,32.76,24.23,51.91
	c0,13.15-3.17,26.36-9.52,39.63c-6.35,13.27-15.63,25.44-27.86,36.51c-12.23,11.07-26.3,20.19-42.22,27.34
	c-13.62,5.76-30.75,11.19-51.39,16.27c-20.65,5.07-43.03,9.05-67.14,11.94c-24.11,2.88-47.13,4.33-69.04,4.33
	c-40.38,0-72.85-3.81-97.42-11.42c-24.57-7.61-36.86-19.15-36.86-34.61c0-6.92,4.15-17.7,12.46-32.36
	c8.31-14.65,18.11-24.51,29.42-29.59c9.92-3.92,19.49-6.17,28.72-6.75c9.23-0.57,13.84,0.52,13.84,3.29c0,0.69-0.35,1.38-1.04,2.08
	c-0.69,0.69-1.5,1.27-2.42,1.73c-0.93,0.47-1.85,0.92-2.77,1.38c-4.62,1.85-8.37,3.29-11.25,4.33c-2.89,1.04-5.19,2.08-6.92,3.11
	c-1.73,1.04-2.6,2.48-2.6,4.33c0,4.84,23.88,7.27,71.64,7.27c41.53,0,75.56-1.5,102.09-4.5c26.53-3,49.95-8.42,70.25-16.27
	C330.69,362.42,349.15,351.58,365.76,337.73z"/>
</svg>
