<?xml version="1.0" encoding="utf-8"?>
<!-- Generator: Adobe Illustrator 25.0.0, SVG Export Plug-In . SVG Version: 6.00 Build 0)  -->
<svg version="1.1" id="Layer_1" xmlns="http://www.w3.org/2000/svg" xmlns:xlink="http://www.w3.org/1999/xlink" x="0px" y="0px"
	 viewBox="0 0 1802.2 1206.5" style="enable-background:new 0 0 1802.2 1206.5;" xml:space="preserve">
<style type="text/css">
	.st0{fill:#010101;}
	.st1{fill:#414042;}
	.st2{fill:#27AAE1;}
</style>
<g>
	
		<image style="overflow:visible;opacity:0.75;" width="7707" height="5226" xlink:href="93972510.png"  transform="matrix(0.24 0 0 0.24 -35.7496 -23.5617)">
	</image>
	<g>
		<g>
			<g>
				<path class="st0" d="M151.6,1015.6c33.6,0,61,18,71.2,49h-34.9c-7.2-14.5-20.2-21.7-36.4-21.7c-26.5,0-45.3,19.3-45.3,50.1
					c0,30.6,18.9,50.1,45.3,50.1c16.3,0,29.3-7.2,36.4-21.9h34.9c-10.2,31.2-37.5,49-71.2,49c-43.6,0-76.8-31.9-76.8-77.2
					C74.8,1047.7,108,1015.6,151.6,1015.6z"/>
				<path class="st0" d="M353.8,1170.5c-42.7,0-77.7-32.1-77.7-77.7c0-45.3,34.9-77.4,77.7-77.4c43.2,0,77.4,32.1,77.4,77.4
					C431.2,1138.4,396.8,1170.5,353.8,1170.5z M353.8,1143.4c27.3,0,46.2-19.7,46.2-50.5c0-30.8-18.9-50.1-46.2-50.1
					c-27.6,0-46.4,19.3-46.4,50.1C307.4,1123.6,326.2,1143.4,353.8,1143.4z"/>
				<path class="st0" d="M488.5,1017.5H523l48.2,112.6l48.2-112.6h34.3V1169h-30.4v-98.5l-40.6,98.5h-23l-40.8-98.5v98.5h-30.4
					V1017.5z"/>
				<path class="st0" d="M718.3,1017.5h34.5l48.2,112.6l48.2-112.6h34.3V1169H853v-98.5l-40.6,98.5h-23l-40.8-98.5v98.5h-30.4
					V1017.5z"/>
				<path class="st0" d="M947.6,1017.5H978v93.7c0,20.8,11.3,31.7,30.6,31.7c19.5,0,30.8-10.8,30.8-31.7v-93.7h30.6v93.5
					c0,39.9-28.6,59.4-61.8,59.4c-33.2,0-60.5-19.5-60.5-59.4V1017.5z"/>
				<path class="st0" d="M1263.5,1017.3V1169h-30.4l-68.8-103.9V1169H1134v-151.6h30.4l68.8,104.1v-104.1H1263.5z"/>
				<path class="st0" d="M1328.1,1017.5h30.4V1169h-30.4V1017.5z"/>
				<path class="st0" d="M1415.1,1017.5h111.1v24.5h-40.4V1169h-30.4v-126.9h-40.4V1017.5z"/>
				<path class="st0" d="M1570.5,1017.5h34.3l32.5,69.2l32.3-69.2h33.8l-51.2,98.7v52.7h-30.4v-52.7L1570.5,1017.5z"/>
			</g>
			<g>
				<g>
					<path class="st1" d="M1740.8,533.6c1.3,2.4,0.4,5.4-2.1,6.7c-63.7,34-183.3,79.7-248.2,104c-66.5,24.6-134.1,46-202.3,65.5
						c-68.3,19.1-137.3,35.9-206.6,51c-17.4,3.6-34.7,7.4-52.2,10.6c-17.4,3.3-34.8,6.8-52.3,10l-52.4,9.2
						c-17.5,3.2-35,5.7-52.5,8.5c-17.5,2.9-35,5.8-52.6,8.2l-52.7,8.2l-52.8,7.6c-17.6,2.5-35.2,5-52.8,7.1
						c-17.6,2.1-35.3,4.1-53,5.9c-17.7,1.8-35.4,3-53.1,4.1c-8.9,0.5-17.7,1.2-26.6,1.6c-8.9,0.4-17.7,1-26.6,1.1
						c-17.7,0.5-35.5,0.7-53.3,0.9c-35.5,0.4-71-0.9-106.5-2.1c-17.7-0.6-35.5-1.7-53.2-2.9l-26.6-1.8l-26.6-2.1
						c-35.4-3.3-70.7-7.5-106-12.2c-17.6-2.7-35.2-5.5-52.8-8.7c-17.6-3.1-35.1-6.6-52.6-10.5l0.3-9.6c35.3-6.4,70.5-10.9,105.6-15
						c35.1-4.6,70.1-8.2,105.1-11.7c35-4,69.9-6.7,104.7-10c17.4-1.7,34.8-3.1,52.3-4.6l26.1-2l26.1-2.4c17.4-1.4,34.8-2.8,52.2-3.9
						c17.4-1.1,34.8-2.6,52.2-3.5c17.4-1.1,34.8-1.7,52.2-2.6c17.4-0.9,34.8-1.7,52.2-2.3c8.7-0.3,17.5-0.5,26.2-0.9l26.1-1.2
						c17.4-0.8,34.9-1.5,52.3-2.4l52.2-3.5c17.4-1.2,34.8-2.9,52.2-4.5c17.4-1.8,34.8-3.2,52.1-5.2l52-5.9
						c17.3-2.1,34.6-4.4,51.9-6.6c17.3-2.1,34.6-4.7,51.9-7.3c69.2-9.7,138.1-21.1,206.7-34.8c68.6-13.4,136.8-29.3,204.3-47.5
						c33.8-9.2,67.4-19,100.7-29.9c16.7-5.4,33.3-10.9,49.7-16.9c15.3-5.5,80.8-28.9,102.7-37.8
						C1736.8,530.3,1739.6,531.3,1740.8,533.6L1740.8,533.6z"/>
					<path class="st1" d="M238.1,801.1c0,0,52.6,80.7-21.9,145.9c-7,6.1-2.5,17.8,6.8,17.3c6.4-0.3,15.4-2.1,28.1-6.3
						c49.9-16.6,101.3-75.7,103.8-158.7L238.1,801.1z"/>
				</g>
				<g>
					<path class="st2" d="M627.3,498.7c-8.2-15.1-20.5-28.7-36.9-40.8c-16.4-12.1-34.8-21.9-55.3-29.3
						c-20.5-7.4-41.9-12.9-64.2-16.5c-66.2-9.8-128-31.3-185.4-64.4c-4.9-2.6-10.2-8.2-15.7-16.7c-5.6-8.5-8.4-16.7-8.4-24.6
						c0-28.8,4.8-57.8,14.5-86.8c9.7-29,22-51.7,37.1-68.1c24.3-27.2,67.9-51,131-71.3c63.1-20.3,134.2-30.5,213.2-30.5
						c47.2,0,83.7,3.6,109.4,10.8c25.7,7.2,38.6,18.4,38.6,33.4c0,24.6-3.4,43.6-10.1,57c-6.7,13.4-13.9,22.4-21.6,26.8
						c-7.7,4.4-21.2,10.4-40.6,17.9c-20.7,7.2-38.6,14.8-53.8,22.6c-15.2,7.9-28.3,15.4-39.1,22.6c-10.8,7.2-17.5,10.8-20.2,10.8
						c-3.3,0-4.9-1.3-4.9-3.9c0-5.6,5.8-14,17.5-25.3c11.6-11.3,26-21.2,43-29.7c18-9.5,27-15.6,27-18.2c0-4.3-10-6.4-30-6.4
						c-60.6,0-116.7,5.4-168.2,16.2c-51.5,10.8-92,25.1-121.7,42.8c-29.7,17.7-44.5,35.7-44.5,54.1c0,11.5,6.1,19.6,18.4,24.3
						c12.3,4.8,39.4,12.7,81.4,23.8c42,11.1,79.5,23.9,112.6,38.4c47.5,20.3,82.8,41.5,105.7,63.4c22.9,22,34.4,46.6,34.4,73.8
						c0,18.7-4.5,37.5-13.5,56.3c-9,18.9-22.2,36.1-39.6,51.9c-17.4,15.7-37.4,28.7-60,38.8c-19.3,8.2-43.7,15.9-73,23.1
						c-29.3,7.2-61.1,12.9-95.4,17c-34.3,4.1-67,6.1-98.1,6.1c-57.4,0-103.5-5.4-138.4-16.2c-34.9-10.8-52.4-27.2-52.4-49.2
						c0-9.8,5.9-25.2,17.7-46c11.8-20.8,25.7-34.8,41.8-42c14.1-5.6,27.7-8.8,40.8-9.6c13.1-0.8,19.7,0.7,19.7,4.7
						c0,1-0.5,2-1.5,2.9s-2.1,1.8-3.4,2.5c-1.3,0.7-2.6,1.3-3.9,2c-6.6,2.6-11.9,4.7-16,6.1c-4.1,1.5-7.4,3-9.8,4.4
						c-2.5,1.5-3.7,3.5-3.7,6.1c0,6.9,33.9,10.3,101.8,10.3c59,0,107.4-2.1,145.1-6.4c37.7-4.3,71-12,99.8-23.1
						C577.5,533.7,603.7,518.3,627.3,498.7z"/>
					<path class="st2" d="M1000.5,452.4c-47.5,62.9-83.7,107.7-108.4,134.2c-24.8,26.6-45,39.8-60.7,39.8
						c-12.5,0-23.9-5.2-34.4-15.5c-10.5-10.3-18.6-24.3-24.3-41.8c-5.7-17.5-8.6-36.3-8.6-56.3c0-13.1,1.2-24.9,3.7-35.4
						c2.5-10.5,7.1-22,14-34.7c6.9-12.6,16-26.3,27.3-41.1c11.3-14.8,25.2-31.5,41.6-50.2c9.8-11.5,18.1-21.1,24.8-29
						c6.7-7.9,13.3-13.2,19.7-16c6.4-2.8,16.8-4.2,31.2-4.2c10.5,0,20.5,1.4,30,4.2c9.5,2.8,14.3,5.7,14.3,8.6
						c0,5.9-4.8,16.6-14.5,32c-9.7,15.4-25.2,34.2-46.7,56.3c-21.5,22.1-46.3,43.8-74.5,65.2c-6.2,19.3-9.3,34.1-9.3,44.3
						c0,14.1,5.4,21.1,16.2,21.1c3.9,0,10.5-3.4,19.7-10.1c9.2-6.7,24.7-19.7,46.5-38.8c21.8-19.2,41.4-36.1,58.8-50.9
						c12.8-11.1,27.6-27.8,44.5-49.9c16.9-22.1,30.6-38.8,41.1-49.9c24.3-25.6,40.8-42.2,49.7-49.9c8.9-7.7,17.4-11.6,25.6-11.6
						c7.9,0,13.2,2.5,16,7.4c2.8,4.9,4.2,14.9,4.2,30c0,6.9-0.7,12.5-2,16.7c-1.3,4.3-4,9.8-8.1,16.5c-4.1,6.7-12.4,19.1-24.8,37.1
						c-12.5,18-27.2,39.3-44.3,63.9c-9.2,13.1-17.2,27.5-24.1,43c-6.9,15.6-10.3,27.3-10.3,35.2c0,17,6.7,25.6,20.2,25.6
						c11.1,0,24.1-4.6,38.8-13.8c14.8-9.2,37.4-25.7,67.9-49.7v32.9c-38.4,35.4-66.7,61.1-85.1,77.2c-18.4,16.1-34.3,28.2-47.7,36.4
						c-13.4,8.2-26.2,12.3-38.4,12.3c-27.5,0-41.3-16.4-41.3-49.2c0-12.5,4.1-29.3,12.3-50.4C968.9,523,982.2,492.4,1000.5,452.4z"
						/>
					<path class="st2" d="M1151.5,523.7v-32c17.7-21,31.1-38.8,40.3-53.6c-10.5-3.6-18.1-8-22.9-13.3c-4.8-5.2-7.1-13.1-7.1-23.6
						c0-11.8,4.9-26.7,14.8-44.7c9.8-18,22-34.9,36.4-50.6c14.4-15.7,27.5-25.9,39.3-30.5c4.6-2.3,9-3.4,13.3-3.4
						c6.6,0,9.8,3.1,9.8,9.3c0,5.6-5.1,16.9-15.2,33.9c67.5-10.5,110.1-15.7,127.8-15.7c6.9,0,11.6,0.7,14.3,2
						c5.6,3,10.2,9.8,13.8,20.7c3.6,10.8,5.4,21.6,5.4,32.5c0,6.9-3,14.3-9.1,22.4c-6.1,8-16.5,19.8-31.2,35.2
						c-17.4,18.7-32,39-43.8,61c-11.8,22-17.7,38.5-17.7,49.7c0,15.4,9.5,23.1,28.5,23.1c20,0,54.7-20.3,104.2-61v32.9
						c-27.2,28.5-49.7,51-67.4,67.4c-17.7,16.4-34.1,29.4-49.2,39.1c-15.1,9.7-28.5,14.5-40.3,14.5c-13.8,0-25.2-6.3-34.4-18.9
						c-9.2-12.6-13.8-30.9-13.8-54.8c0-14.1,3.6-30.2,10.8-48.2c7.2-18,17.8-37.6,31.7-58.8c13.9-21.1,29.6-42.2,47-63.2
						c-9.2,2-19.5,4-31,6.1c-11.5,2.1-23.6,4.3-36.4,6.6c-12.8,2.3-22.6,4.1-29.5,5.4C1219.6,453.8,1190.1,490.6,1151.5,523.7z"/>
					<path class="st2" d="M1637.8,589.6c0,29.8-1.5,55.2-4.4,76.2c-2.9,21-9.5,43-19.7,66.1c-10.2,23.1-25.9,48.4-47.2,76
						c-21,27.2-41.6,48.1-62,62.7c-20.3,14.6-36.2,21.9-47.7,21.9c-12.8,0-24.6-10.5-35.4-31.5c-10.8-21-16.2-47-16.2-78.2
						c0-29.8,5.1-61.3,15.2-94.4c10.2-33.1,25.9-75.9,47.2-128.3c-16.1-21-24.1-41.8-24.1-62.4c0-16.7,4.3-29.5,12.8-38.4
						c8.5-8.9,20.7-16.9,36.4-24.1c11.5-18,22.4-33.4,32.7-46c10.3-12.6,24.3-29.4,42-50.4c34.1-83.9,74.1-165.9,120-245.9
						c12.8-22.3,22-37.3,27.5-45c5.6-7.7,11.5-11.6,17.7-11.6c5.6,0,10.5,4.1,14.8,12.3c4.3,8.2,6.4,18.9,6.4,32
						c0,16.1-1.7,30.8-5.2,44.3c-3.4,13.4-8.4,27-14.8,40.6c-6.4,13.6-15.2,29.9-26.6,48.9c-11.3,19-18.3,30.8-20.9,35.4
						c-16.4,28.9-34.9,60.8-55.6,95.9c-20.7,35.1-37,62.8-48.9,83.1c-12,20.3-20.6,35.6-25.8,45.7c17.7,15.4,31.7,28.7,42,39.8
						c10.3,11.1,19.3,24.4,26.8,39.8C1629.7,562.6,1631.7,569.1,1637.8,589.6z M1577.3,617.7l-1-10.3c-9.2,1-16.6,1.2-22.1,0.7
						c-5.6-0.5-12-1.9-19.4-4.2c-7.4-2.3-13.1-4.4-17.2-6.4c-4.1-2-8.6-3.9-13.5-5.9c-24.9,61-37.4,111.6-37.4,151.9
						c0,20,3,37,9.1,51.1c6.1,14.1,13.2,21.1,21.4,21.1c8.5,0,19.3-7.5,32.2-22.6c12.9-15.1,24.2-37.4,33.7-66.9
						C1572.5,696.8,1577.3,660.6,1577.3,617.7z"/>
				</g>
			</g>
		</g>
	</g>
</g>
</svg>
