<?xml version="1.0" encoding="utf-8"?>
<!-- Generator: Adobe Illustrator 25.0.0, SVG Export Plug-In . SVG Version: 6.00 Build 0)  -->
<svg version="1.1" id="Layer_1" xmlns="http://www.w3.org/2000/svg" xmlns:xlink="http://www.w3.org/1999/xlink" x="0px" y="0px"
	 viewBox="0 0 4000 4000" style="enable-background:new 0 0 4000 4000;" xml:space="preserve">
<style type="text/css">
	.st0{fill:#010101;}
	.st1{fill:url(#SVGID_1_);}
	.st2{fill:url(#SVGID_2_);}
	.st3{fill:url(#SVGID_3_);}
	.st4{fill:url(#SVGID_4_);}
	.st5{fill:url(#SVGID_5_);}
	.st6{fill:url(#SVGID_6_);}
</style>
<symbol  id="SurfCommunity" viewBox="-1908.03 -1251.2 3816.06 2502.4">
	<g>
		<path class="st0" d="M-1627.47-909.39c74.2,0,134.52-39.73,157.02-108.19h-77.07c-15.8,32.08-44.52,47.87-80.43,47.87
			c-58.4,0-100.05-42.6-100.05-110.58c0-67.5,41.65-110.59,100.05-110.59c35.9,0,64.62,15.8,80.43,48.35h77.07
			c-22.5-68.93-82.82-108.19-157.02-108.19c-96.22,0-169.46,70.37-169.46,170.42C-1796.94-980.25-1723.7-909.39-1627.47-909.39z"/>
		<path class="st0" d="M-1181.29-1251.2c-94.31,0-171.38,70.85-171.38,171.38c0,100.05,77.07,170.9,171.38,170.9
			c95.27,0,170.9-70.85,170.9-170.9C-1010.39-1180.35-1086.51-1251.2-1181.29-1251.2z M-1181.29-1191.36
			c60.32,0,101.97,43.56,101.97,111.54c0,67.98-41.65,110.58-101.97,110.58c-60.8,0-102.45-42.6-102.45-110.58
			C-1283.74-1147.79-1242.09-1191.36-1181.29-1191.36z"/>
		<path class="st0" d="M-883.99-913.7h76.12l106.27-248.46l106.28,248.46h75.64v-334.15h-67.02v217.34l-89.52-217.34h-50.74
			l-90,217.34v-217.34h-67.02V-913.7z"/>
		<path class="st0" d="M-377-913.7h76.12l106.27-248.46L-88.34-913.7h75.64v-334.15h-67.02v217.34l-89.52-217.34h-50.74l-90,217.34
			v-217.34H-377V-913.7z"/>
		<path class="st0" d="M129.02-913.7h67.02v-206.81c0-45.96,24.9-69.89,67.5-69.89c43.09,0,67.98,23.94,67.98,69.89v206.81h67.5
			v-206.33c0-88.08-63.19-131.17-136.43-131.17c-73.25,0-133.56,43.09-133.56,131.17V-913.7z"/>
		<path class="st0" d="M826.06-913.22v-334.62h-67.02l-151.75,229.31v-229.31h-67.02v334.62h67.02l151.75-229.78v229.78H826.06z"/>
		<path class="st0" d="M968.73-913.7h67.02v-334.15h-67.02V-913.7z"/>
		<path class="st0" d="M1160.71-913.7h245.1v-54.1h-89.04v-280.05h-67.02v280.05h-89.04V-913.7z"/>
		<path class="st0" d="M1503.48-913.7h75.64l71.81-152.71l71.33,152.71h74.68l-112.98-217.82v-116.33h-67.02v116.33L1503.48-913.7z"
			/>
	</g>
	<g>
		<g>
			<linearGradient id="SVGID_1_" gradientUnits="userSpaceOnUse" x1="-1696.3986" y1="506.3341" x2="-184.9697" y2="506.3341">
				<stop  offset="0" style="stop-color:#2484C6"/>
				<stop  offset="1" style="stop-color:#2484C6;stop-opacity:0"/>
			</linearGradient>
			<path class="st1" d="M-577.75,231.28c-18.09,33.26-45.21,63.28-81.37,90.05c-36.18,26.76-76.87,48.28-122.07,64.56
				c-45.21,16.27-92.41,28.38-141.59,36.35c-146.12,21.7-282.48,69.07-409.05,142.14c-10.85,5.78-22.43,18.07-34.72,36.89
				c-12.31,18.8-18.44,36.89-18.44,54.25c0,63.64,10.66,127.49,32.01,191.51c21.33,64.02,48.64,114.1,81.92,150.28
				c53.52,60.03,149.9,112.47,289.16,157.33c139.24,44.84,296.02,67.27,470.35,67.27c104.16,0,184.62-7.97,241.42-23.87
				c56.78-15.92,85.17-40.52,85.17-73.78c0-54.25-7.42-96.21-22.24-125.86c-14.83-29.67-30.75-49.37-47.74-59.13
				c-17-9.77-46.84-22.97-89.51-39.6c-45.57-15.92-85.17-32.55-118.81-49.91c-33.64-17.36-62.39-34.01-86.26-49.91
				c-23.87-15.92-38.7-23.87-44.49-23.87c-7.24,0-10.85,2.88-10.85,8.68c0,12.29,12.83,30.92,38.52,55.88
				c25.67,24.96,57.32,46.83,94.94,65.64c39.77,20.97,59.68,34.35,59.68,40.15c0,9.39-22.07,14.11-66.19,14.11
				c-133.83,0-257.52-11.94-371.08-35.8c-113.57-23.87-203.09-55.34-268.54-94.4c-65.47-39.06-98.19-78.85-98.19-119.35
				c0-25.33,13.56-43.23,40.69-53.71c27.12-10.49,86.97-28.04,179.57-52.62c92.58-24.6,175.4-52.81,248.47-84.63
				c104.87-44.86,182.64-91.51,233.28-139.97c50.62-48.47,75.95-102.72,75.95-162.76c0-41.23-9.95-82.65-29.84-124.23
				c-19.91-41.6-49.01-79.75-87.34-114.47c-38.35-34.72-82.46-63.29-132.38-85.71c-42.69-18.07-96.39-35.08-161.12-51
				c-64.75-15.9-134.92-28.38-210.5-37.43c-75.59-9.04-147.75-13.56-216.46-13.56c-126.59,0-228.4,11.94-305.43,35.81
				c-77.03,23.87-115.55,60.05-115.55,108.5c0,21.7,13.02,55.51,39.06,101.45c26.04,45.93,56.78,76.85,92.23,92.77
				c31.1,12.29,61.12,19.34,90.06,21.16c28.92,1.79,43.4-1.63,43.4-10.31c0-2.17-1.09-4.34-3.26-6.51
				c-2.17-2.17-4.71-3.99-7.59-5.43c-2.9-1.46-5.8-2.9-8.68-4.34c-14.48-5.8-26.23-10.31-35.26-13.56
				c-9.05-3.26-16.27-6.51-21.7-9.77c-5.42-3.26-8.14-7.78-8.14-13.57c0-15.19,74.86-22.78,224.6-22.78
				c130.2,0,236.89,4.7,320.08,14.11c83.17,9.39,156.6,26.4,220.26,51C-687.71,153.87-629.83,187.88-577.75,231.28z"/>
			<linearGradient id="SVGID_2_" gradientUnits="userSpaceOnUse" x1="-275.8633" y1="320.2531" x2="599.7461" y2="320.2531">
				<stop  offset="0" style="stop-color:#2484C6"/>
				<stop  offset="1" style="stop-color:#2484C6;stop-opacity:0"/>
			</linearGradient>
			<path class="st2" d="M246.03,333.27C141.14,194.39,61.39,95.65,6.79,37.06c-54.63-58.59-99.28-87.89-134-87.89
				c-27.5,0-52.81,11.39-75.95,34.18c-23.16,22.79-41.06,53.52-53.71,92.23c-12.66,38.69-18.99,80.11-18.99,124.24
				c0,28.92,2.71,54.96,8.14,78.12c5.43,23.14,15.73,48.64,30.92,76.49c15.19,27.84,35.26,58.05,60.22,90.6
				c24.96,32.55,55.51,69.44,91.69,110.67c21.7,25.31,39.96,46.66,54.79,64.02c14.82,17.36,29.3,29.11,43.4,35.26
				c14.11,6.14,37.06,9.23,68.9,9.23c23.14,0,45.2-3.09,66.19-9.23c20.97-6.15,31.47-12.48,31.47-18.99
				c0-13.02-10.68-36.53-32.01-70.53c-21.34-34.01-55.71-75.41-103.08-124.23c-47.39-48.83-102.18-96.76-164.38-143.76
				c-13.75-42.69-20.61-75.24-20.61-97.65c0-31.11,11.94-46.65,35.81-46.65c8.68,0,23.14,7.41,43.4,22.24
				c20.24,14.82,54.42,43.4,102.54,85.72c48.1,42.32,91.31,79.75,129.66,112.3c28.21,24.58,60.93,61.31,98.2,110.13
				c37.25,48.82,67.44,85.53,90.6,110.13c53.52,56.42,90.06,93.13,109.58,110.13c19.53,16.99,38.33,25.5,56.42,25.5
				c17.36,0,29.11-5.43,35.27-16.27c6.13-10.85,9.22-32.92,9.22-66.19c0-15.19-1.46-27.5-4.34-36.89
				c-2.9-9.41-8.86-21.53-17.9-36.35c-9.05-14.83-27.31-42.15-54.79-81.92c-27.5-39.79-60.05-86.8-97.65-141.05
				c-20.26-28.94-37.97-60.59-53.16-94.94c-15.19-34.37-22.78-60.22-22.78-77.58c0-37.62,14.82-56.42,44.49-56.42
				c24.58,0,53.16,10.12,85.72,30.38c32.55,20.24,82.46,56.78,149.73,109.59v-72.7C515.12,110.84,452.54,54.05,412.04,18.62
				c-40.52-35.45-75.6-62.22-105.25-80.29c-29.67-18.09-57.88-27.12-84.63-27.12c-60.76,0-91.14,36.16-91.14,108.5
				c0,27.48,9.04,64.56,27.13,111.21C176.22,177.57,205.51,245.01,246.03,333.27z"/>
			<linearGradient id="SVGID_3_" gradientUnits="userSpaceOnUse" x1="578.7461" y1="326.7623" x2="1242.7461" y2="326.7623">
				<stop  offset="0" style="stop-color:#2484C6"/>
				<stop  offset="1" style="stop-color:#2484C6;stop-opacity:0"/>
			</linearGradient>
			<path class="st3" d="M578.75,175.95v70.52c39.06,46.28,68.71,85.71,88.97,118.26c-23.16,7.95-39.98,17.71-50.45,29.3
				c-10.49,11.56-15.73,28.92-15.73,52.08c0,26.04,10.85,58.94,32.55,98.73c21.7,39.77,48.45,77.03,80.29,111.75
				c31.82,34.72,60.76,57.13,86.8,67.27c10.12,5.05,19.89,7.6,29.3,7.6c14.46,0,21.7-6.88,21.7-20.61
				c0-12.31-11.22-37.26-33.63-74.86c149,23.14,243.03,34.72,282.09,34.72c15.19,0,25.66-1.46,31.46-4.34
				c12.29-6.51,22.41-21.7,30.38-45.57c7.95-23.87,11.93-47.74,11.93-71.61c0-15.19-6.7-31.65-20.07-49.37
				c-13.39-17.73-36.35-43.59-68.9-77.57c-38.35-41.23-70.52-86.08-96.56-134.54c-26.04-48.47-39.06-85-39.06-109.58
				c0-34.01,20.97-50.99,62.93-50.99c44.11,0,120.79,44.84,230.01,134.54v-72.7c-60.05-62.93-109.58-112.48-148.64-148.64
				c-39.06-36.18-75.23-64.93-108.5-86.25c-33.28-21.35-62.93-32.01-88.97-32.01c-30.38,0-55.71,13.92-75.95,41.77
				c-20.26,27.83-30.38,68.16-30.38,120.97c0,31.09,7.95,66.54,23.87,106.33c15.9,39.77,39.23,83,69.98,129.66
				c30.74,46.65,65.27,93.12,103.61,139.42c-20.26-4.34-43.04-8.87-68.35-13.56c-25.33-4.71-52.08-9.59-80.29-14.64
				c-28.21-5.07-49.91-9.05-65.1-11.93C729.18,330.37,664.09,249,578.75,175.95z"/>
			<linearGradient id="SVGID_4_" gradientUnits="userSpaceOnUse" x1="1138.7533" y1="306.6896" x2="1908.0313" y2="306.6896">
				<stop  offset="0" style="stop-color:#2484C6"/>
				<stop  offset="1" style="stop-color:#2484C6;stop-opacity:0"/>
			</linearGradient>
			<path class="st4" d="M1651.97,30.55c0-65.83-3.26-121.88-9.77-168.18c-6.51-46.28-20.99-94.94-43.4-145.93
				c-22.43-50.99-57.15-106.87-104.16-167.63c-46.3-60.03-91.87-106.14-136.71-138.34c-44.86-32.18-79.93-48.28-105.24-48.28
				c-28.21,0-54.25,23.16-78.12,69.45c-23.87,46.3-35.81,103.8-35.81,172.51c0,65.83,11.22,135.27,33.64,208.32
				c22.43,73.07,57.13,167.45,104.16,283.19c-35.45,46.28-53.17,92.23-53.17,137.8c0,36.89,9.39,65.1,28.21,84.63
				c18.8,19.53,45.57,37.25,80.29,53.16c25.31,39.77,49.37,73.6,72.16,101.45c22.78,27.84,53.71,64.91,92.77,111.21
				c75.22,185.17,163.46,366.01,264.74,542.51c28.21,49.18,48.45,82.28,60.76,99.28c12.29,16.99,25.31,25.5,39.06,25.5
				c12.29,0,23.14-9.05,32.55-27.13c9.39-18.09,14.11-41.6,14.11-70.53c0-35.45-3.8-68-11.39-97.65
				c-7.6-29.67-18.45-59.5-32.55-89.51c-14.11-30.03-33.63-66.02-58.59-107.96c-24.95-41.96-40.33-68-46.11-78.12
				c-36.18-63.66-77.04-134.19-122.61-211.58c-45.57-77.41-81.56-138.53-107.96-183.37c-26.41-44.86-45.4-78.49-56.96-100.91
				c39.06-34.01,69.99-63.3,92.77-87.89c22.78-24.6,42.48-53.89,59.13-87.89C1634.27,90.1,1638.67,75.95,1651.97,30.55z
				 M1518.51-31.29l-2.17,22.79c-20.26-2.17-36.54-2.71-48.82-1.63c-12.31,1.08-26.58,4.15-42.86,9.22
				c-16.27,5.05-28.94,9.76-37.98,14.11c-9.05,4.34-18.99,8.68-29.84,13.02c-54.98-134.54-82.46-246.3-82.46-335.27
				c0-44.11,6.68-81.73,20.07-112.84c13.38-31.09,29.11-46.65,47.2-46.65c18.8,0,42.49,16.64,71.07,49.91
				c28.57,33.28,53.34,82.46,74.33,147.56C1508.01-205.98,1518.51-126.04,1518.51-31.29z"/>
		</g>
		<g>
			<linearGradient id="SVGID_5_" gradientUnits="userSpaceOnUse" x1="-1908.0313" y1="-185.2339" x2="1880.502" y2="-185.2339">
				<stop  offset="0" style="stop-color:#2484C6"/>
				<stop  offset="1" style="stop-color:#2484C6;stop-opacity:0"/>
			</linearGradient>
			<path class="st5" d="M1879.25,154.12c2.79-5.38,0.78-12.03-4.57-14.88c-140.59-74.96-404.47-175.9-547.64-229.58
				c-146.71-54.19-295.94-101.61-446.48-144.51c-150.74-42.14-302.92-79.26-455.99-112.44c-38.31-8.05-76.63-16.24-115.1-23.38
				c-38.45-7.31-76.87-15.02-115.39-22.02l-115.7-20.33c-38.56-6.99-77.29-12.52-115.96-18.86c-38.66-6.31-77.33-12.76-116.11-18.16
				l-116.21-17.99l-116.41-16.82c-38.83-5.59-77.68-11.06-116.61-15.65c-38.93-4.6-77.89-9.05-116.9-13.03
				c-39.01-4-78.1-6.53-117.19-9.15c-19.56-1.17-39.1-2.55-58.67-3.43c-19.57-0.91-39.12-2.24-58.71-2.44
				c-39.16-1.06-78.35-1.49-117.52-1.88c-78.36-0.84-156.73,2.01-235.02,4.53c-39.15,1.32-78.28,3.76-117.39,6.48l-58.64,4.05
				l-58.6,4.65c-78.1,7.3-156.08,16.48-233.87,27c-38.88,5.92-77.72,12.24-116.49,19.22c-38.77,6.82-77.48,14.5-116.1,23.1
				l0.59,21.12c78,14.19,155.64,24.02,233.11,33.13c77.47,10.16,154.76,18.03,231.92,25.74c77.13,8.73,154.19,14.84,231.1,22.12
				c38.45,3.79,76.9,6.8,115.31,10.24l57.63,4.43l57.56,5.26c38.38,3.11,76.75,6.18,115.14,8.63c38.39,2.43,76.71,5.68,115.11,7.76
				c38.37,2.45,76.83,3.73,115.22,5.83c38.39,2.06,76.83,3.66,115.29,5.1c19.23,0.69,38.51,1.04,57.72,2l57.67,2.74
				c38.45,1.83,76.97,3.24,115.43,5.41l115.26,7.75c38.44,2.66,76.74,6.37,115.08,9.94c38.29,3.89,76.73,6.98,114.95,11.53l114.8,13
				c38.24,4.55,76.38,9.8,114.59,14.67c38.25,4.7,76.32,10.44,114.43,16.04c152.63,21.3,304.79,46.55,456.02,76.85
				c151.41,29.53,301.77,64.61,450.89,104.83c74.49,20.32,148.67,41.99,222.13,65.92c36.74,11.92,73.43,24.13,109.74,37.32
				c33.7,12.14,178.2,63.87,226.57,83.36C1870.56,161.46,1876.61,159.21,1879.25,154.12L1879.25,154.12z"/>
			<linearGradient id="SVGID_6_" gradientUnits="userSpaceOnUse" x1="-1492.5067" y1="-614.157" x2="-1178.8204" y2="-614.157">
				<stop  offset="0" style="stop-color:#2484C6"/>
				<stop  offset="1" style="stop-color:#2484C6;stop-opacity:0"/>
			</linearGradient>
			<path class="st6" d="M-1436.56-436.15c0,0,116.03-178.15-48.42-321.9c-15.47-13.52-5.43-39.18,15.09-38.15
				c14.07,0.71,33.94,4.66,61.92,13.99c110.06,36.69,223.52,167.06,229.15,350.12L-1436.56-436.15z"/>
		</g>
	</g>
</symbol>
<use xlink:href="#SurfCommunity"  width="3816.06" height="2502.4" id="XMLID_1_" x="-1908.03" y="-1251.2" transform="matrix(1 0 0 -1 1991.2539 2001.4363)" style="overflow:visible;"/>
</svg>
